<svg width="259" height="18" viewBox="0 0 259 18" fill="none" xmlns="http://www.w3.org/2000/svg">
<mask id="path-1-outside-1" maskUnits="userSpaceOnUse" x="0.468445" y="0" width="39" height="18" fill="black">
<rect fill="white" x="0.468445" width="39" height="18"/>
<path d="M38.4631 3.84329C38.4925 3.6959 38.3968 3.55263 38.2494 3.52327C38.102 3.49391 38.2788 3.12461 38.2494 3.27199C37.6279 6.3868 33.9229 6.26738 31.0447 5.75156C30.961 5.60799 30.8708 5.46378 30.7737 5.31904C30.2403 4.52386 29.5188 3.78492 28.5914 3.18081C27.7643 2.64208 26.7734 2.21085 25.6061 1.94334C24.5894 1.67625 23.4865 1.72273 22.3227 1.99037C21.1778 2.25368 19.9733 2.73114 18.7343 3.33308C17.3488 4.00615 16.0242 5.04592 14.6832 6.09849C14.587 6.17401 14.4907 6.24962 14.3943 6.32514C14.0332 6.0268 13.6718 5.72553 13.313 5.42639C10.8465 3.37036 8.49864 1.4134 7.10153 1.11693C7.09333 1.11454 7.08493 1.1125 7.07636 1.11086C6.52781 1.004 5.9704 0.97439 5.42694 1.02205C4.88547 1.06953 4.35623 1.19361 3.8615 1.39427C2.15156 2.08782 1.23633 3.41076 1.04003 4.8346C0.942608 5.54121 1.02392 6.27177 1.27454 6.96125C1.52444 7.64879 1.94244 8.29531 2.51902 8.83601C3.87182 10.1046 6.0955 10.7934 9.05945 10.053C10.9708 9.57547 12.7001 8.33204 14.3864 7.02103C14.8462 7.39847 15.3043 7.76893 15.7553 8.12251C15.256 8.44419 14.7989 8.8373 14.3949 9.2968C13.6719 10.1191 13.1185 11.1539 12.7979 12.3716C12.6267 13.0219 12.5706 13.5978 12.6046 14.1028C12.6581 14.8988 12.9343 15.5207 13.3378 15.9823C13.742 16.4448 14.2712 16.7418 14.8309 16.889C15.1897 16.9835 15.5612 17.0165 15.92 16.9924C16.2438 16.9706 16.5559 16.8981 16.8333 16.7853C17.1192 16.6691 17.3712 16.5088 17.5652 16.3153C17.9411 15.9403 18.0203 15.4622 17.91 15.023C17.8543 14.8012 17.7488 14.5895 17.6083 14.4077C17.4674 14.2254 17.2897 14.0722 17.0901 13.9679C16.7197 13.7744 16.2811 13.7481 15.8621 14.0071C15.6639 14.1297 15.4839 14.3117 15.3454 14.5552C15.2254 14.7662 15.1362 15.0238 15.0937 15.3289C15.0732 15.4774 15.177 15.6145 15.3256 15.6351C15.4741 15.6556 15.6113 15.5518 15.6318 15.4033C15.6643 15.1697 15.7301 14.977 15.8176 14.8231C15.909 14.6625 16.0235 14.545 16.1471 14.4686C16.382 14.3233 16.6293 14.3389 16.8391 14.4485C16.9675 14.5155 17.084 14.617 17.1786 14.7394C17.2737 14.8624 17.345 15.0053 17.3825 15.1548C17.4495 15.4215 17.4041 15.7092 17.1823 15.9304C17.0406 16.0718 16.85 16.1916 16.6292 16.2814C16.4031 16.3733 16.1484 16.4324 15.8839 16.4502C15.5816 16.4705 15.2696 16.4429 14.9691 16.3638C14.5079 16.2425 14.0742 16.0004 13.7461 15.6251C13.4174 15.2489 13.1918 14.7343 13.1469 14.0666C13.1167 13.6173 13.1679 13.0998 13.3232 12.5098C13.6214 11.3773 14.1342 10.4171 14.8032 9.65615C15.218 9.18441 15.6926 8.78924 16.213 8.47709C17.4284 9.40699 18.5772 10.1855 19.5474 10.6089C20.6016 11.0689 21.4552 10.9543 22.0054 10.5698C22.2349 10.4095 22.4115 10.2021 22.529 9.96849C22.6467 9.73431 22.7044 9.47462 22.6956 9.21014C22.6758 8.61548 22.3241 7.99944 21.568 7.60709C21.0019 7.3134 20.2564 7.13354 19.4469 7.10702C18.7029 7.08265 17.9008 7.1879 17.1315 7.45382C16.8312 7.55761 16.5402 7.68296 16.2602 7.82904C15.7889 7.46269 15.3079 7.0753 14.8242 6.67896L15.0193 6.52588C16.3382 5.49061 17.641 4.46795 18.9704 3.82214C20.176 3.23646 21.3431 2.773 22.4439 2.51983C23.5259 2.271 24.543 2.2255 25.4679 2.46846L25.4774 2.47059C26.582 2.72268 27.5172 3.12879 28.2957 3.63586C29.158 4.19752 29.8281 4.88346 30.3228 5.62098L30.3248 5.62396C29.1931 5.4286 28.177 5.2934 27.4496 5.45588C25.9785 5.78452 25.2524 7.06236 25.1201 8.49418C25.071 9.02605 25.1046 9.5795 25.2129 10.1113C25.3215 10.6446 25.5055 11.1578 25.7569 11.6076C26.3832 12.7284 27.4199 13.4615 28.7552 13.1829C29.1598 13.0984 29.5634 12.9231 29.9403 12.6704C30.6055 12.2244 31.1904 11.5345 31.5495 10.6773C31.9069 9.82438 32.0416 8.80475 31.8098 7.69455C31.7194 7.2613 31.573 6.8145 31.362 6.35883C34.3838 6.89153 37.7697 7.31865 38.4631 3.84329ZM27.5666 5.98534C28.2909 5.82355 29.4349 6.01458 30.6962 6.24C30.9846 6.77787 31.1731 7.30237 31.2781 7.80512C31.4855 8.7988 31.3659 9.70909 31.0476 10.4689C30.7311 11.2245 30.219 11.8303 29.6382 12.2197C29.3195 12.4334 28.981 12.5811 28.6446 12.6513C27.5837 12.8726 26.7465 12.2661 26.2311 11.344C26.0069 10.9427 25.8423 10.4827 25.7446 10.0029C25.6466 9.52166 25.6161 9.02203 25.6604 8.54309C25.7723 7.33077 26.3675 6.2532 27.5666 5.98534ZM13.9564 6.66651C12.346 7.91434 10.6987 9.08318 8.92758 9.52563C6.16914 10.2147 4.12171 9.59443 2.89122 8.4405C2.37786 7.95908 2.00634 7.38522 1.78499 6.77626C1.56435 6.16924 1.49261 5.52707 1.57812 4.9069C1.7491 3.66676 2.55564 2.51068 4.06569 1.89821C4.50886 1.71846 4.98493 1.60714 5.47374 1.56427C5.96928 1.52081 6.47638 1.54758 6.97428 1.64458C6.97818 1.64533 6.98207 1.64596 6.98597 1.64654C8.24813 1.91028 10.549 3.82811 12.9663 5.84316C13.2949 6.11708 13.6256 6.39278 13.9564 6.66651ZM19.7643 10.1113C18.8901 9.72974 17.8497 9.03569 16.7396 8.19675C16.9246 8.11016 17.1142 8.03325 17.308 7.96627C18.0116 7.72307 18.7468 7.62686 19.4299 7.64924C20.1575 7.67307 20.8214 7.83151 21.3191 8.08977C21.8796 8.38058 22.1395 8.81555 22.1532 9.22715C22.159 9.40169 22.1212 9.57255 22.044 9.72608C21.9666 9.88019 21.8488 10.0178 21.6949 10.1254C21.2849 10.4119 20.6205 10.4849 19.7643 10.1113Z"/>
</mask>
<path d="M38.4631 3.84329C38.4925 3.6959 38.3968 3.55263 38.2494 3.52327C38.102 3.49391 38.2788 3.12461 38.2494 3.27199C37.6279 6.3868 33.9229 6.26738 31.0447 5.75156C30.961 5.60799 30.8708 5.46378 30.7737 5.31904C30.2403 4.52386 29.5188 3.78492 28.5914 3.18081C27.7643 2.64208 26.7734 2.21085 25.6061 1.94334C24.5894 1.67625 23.4865 1.72273 22.3227 1.99037C21.1778 2.25368 19.9733 2.73114 18.7343 3.33308C17.3488 4.00615 16.0242 5.04592 14.6832 6.09849C14.587 6.17401 14.4907 6.24962 14.3943 6.32514C14.0332 6.0268 13.6718 5.72553 13.313 5.42639C10.8465 3.37036 8.49864 1.4134 7.10153 1.11693C7.09333 1.11454 7.08493 1.1125 7.07636 1.11086C6.52781 1.004 5.9704 0.97439 5.42694 1.02205C4.88547 1.06953 4.35623 1.19361 3.8615 1.39427C2.15156 2.08782 1.23633 3.41076 1.04003 4.8346C0.942608 5.54121 1.02392 6.27177 1.27454 6.96125C1.52444 7.64879 1.94244 8.29531 2.51902 8.83601C3.87182 10.1046 6.0955 10.7934 9.05945 10.053C10.9708 9.57547 12.7001 8.33204 14.3864 7.02103C14.8462 7.39847 15.3043 7.76893 15.7553 8.12251C15.256 8.44419 14.7989 8.8373 14.3949 9.2968C13.6719 10.1191 13.1185 11.1539 12.7979 12.3716C12.6267 13.0219 12.5706 13.5978 12.6046 14.1028C12.6581 14.8988 12.9343 15.5207 13.3378 15.9823C13.742 16.4448 14.2712 16.7418 14.8309 16.889C15.1897 16.9835 15.5612 17.0165 15.92 16.9924C16.2438 16.9706 16.5559 16.8981 16.8333 16.7853C17.1192 16.6691 17.3712 16.5088 17.5652 16.3153C17.9411 15.9403 18.0203 15.4622 17.91 15.023C17.8543 14.8012 17.7488 14.5895 17.6083 14.4077C17.4674 14.2254 17.2897 14.0722 17.0901 13.9679C16.7197 13.7744 16.2811 13.7481 15.8621 14.0071C15.6639 14.1297 15.4839 14.3117 15.3454 14.5552C15.2254 14.7662 15.1362 15.0238 15.0937 15.3289C15.0732 15.4774 15.177 15.6145 15.3256 15.6351C15.4741 15.6556 15.6113 15.5518 15.6318 15.4033C15.6643 15.1697 15.7301 14.977 15.8176 14.8231C15.909 14.6625 16.0235 14.545 16.1471 14.4686C16.382 14.3233 16.6293 14.3389 16.8391 14.4485C16.9675 14.5155 17.084 14.617 17.1786 14.7394C17.2737 14.8624 17.345 15.0053 17.3825 15.1548C17.4495 15.4215 17.4041 15.7092 17.1823 15.9304C17.0406 16.0718 16.85 16.1916 16.6292 16.2814C16.4031 16.3733 16.1484 16.4324 15.8839 16.4502C15.5816 16.4705 15.2696 16.4429 14.9691 16.3638C14.5079 16.2425 14.0742 16.0004 13.7461 15.6251C13.4174 15.2489 13.1918 14.7343 13.1469 14.0666C13.1167 13.6173 13.1679 13.0998 13.3232 12.5098C13.6214 11.3773 14.1342 10.4171 14.8032 9.65615C15.218 9.18441 15.6926 8.78924 16.213 8.47709C17.4284 9.40699 18.5772 10.1855 19.5474 10.6089C20.6016 11.0689 21.4552 10.9543 22.0054 10.5698C22.2349 10.4095 22.4115 10.2021 22.529 9.96849C22.6467 9.73431 22.7044 9.47462 22.6956 9.21014C22.6758 8.61548 22.3241 7.99944 21.568 7.60709C21.0019 7.3134 20.2564 7.13354 19.4469 7.10702C18.7029 7.08265 17.9008 7.1879 17.1315 7.45382C16.8312 7.55761 16.5402 7.68296 16.2602 7.82904C15.7889 7.46269 15.3079 7.0753 14.8242 6.67896L15.0193 6.52588C16.3382 5.49061 17.641 4.46795 18.9704 3.82214C20.176 3.23646 21.3431 2.773 22.4439 2.51983C23.5259 2.271 24.543 2.2255 25.4679 2.46846L25.4774 2.47059C26.582 2.72268 27.5172 3.12879 28.2957 3.63586C29.158 4.19752 29.8281 4.88346 30.3228 5.62098L30.3248 5.62396C29.1931 5.4286 28.177 5.2934 27.4496 5.45588C25.9785 5.78452 25.2524 7.06236 25.1201 8.49418C25.071 9.02605 25.1046 9.5795 25.2129 10.1113C25.3215 10.6446 25.5055 11.1578 25.7569 11.6076C26.3832 12.7284 27.4199 13.4615 28.7552 13.1829C29.1598 13.0984 29.5634 12.9231 29.9403 12.6704C30.6055 12.2244 31.1904 11.5345 31.5495 10.6773C31.9069 9.82438 32.0416 8.80475 31.8098 7.69455C31.7194 7.2613 31.573 6.8145 31.362 6.35883C34.3838 6.89153 37.7697 7.31865 38.4631 3.84329ZM27.5666 5.98534C28.2909 5.82355 29.4349 6.01458 30.6962 6.24C30.9846 6.77787 31.1731 7.30237 31.2781 7.80512C31.4855 8.7988 31.3659 9.70909 31.0476 10.4689C30.7311 11.2245 30.219 11.8303 29.6382 12.2197C29.3195 12.4334 28.981 12.5811 28.6446 12.6513C27.5837 12.8726 26.7465 12.2661 26.2311 11.344C26.0069 10.9427 25.8423 10.4827 25.7446 10.0029C25.6466 9.52166 25.6161 9.02203 25.6604 8.54309C25.7723 7.33077 26.3675 6.2532 27.5666 5.98534ZM13.9564 6.66651C12.346 7.91434 10.6987 9.08318 8.92758 9.52563C6.16914 10.2147 4.12171 9.59443 2.89122 8.4405C2.37786 7.95908 2.00634 7.38522 1.78499 6.77626C1.56435 6.16924 1.49261 5.52707 1.57812 4.9069C1.7491 3.66676 2.55564 2.51068 4.06569 1.89821C4.50886 1.71846 4.98493 1.60714 5.47374 1.56427C5.96928 1.52081 6.47638 1.54758 6.97428 1.64458C6.97818 1.64533 6.98207 1.64596 6.98597 1.64654C8.24813 1.91028 10.549 3.82811 12.9663 5.84316C13.2949 6.11708 13.6256 6.39278 13.9564 6.66651ZM19.7643 10.1113C18.8901 9.72974 17.8497 9.03569 16.7396 8.19675C16.9246 8.11016 17.1142 8.03325 17.308 7.96627C18.0116 7.72307 18.7468 7.62686 19.4299 7.64924C20.1575 7.67307 20.8214 7.83151 21.3191 8.08977C21.8796 8.38058 22.1395 8.81555 22.1532 9.22715C22.159 9.40169 22.1212 9.57255 22.044 9.72608C21.9666 9.88019 21.8488 10.0178 21.6949 10.1254C21.2849 10.4119 20.6205 10.4849 19.7643 10.1113Z" fill="#B4975A"/>
<path d="M38.4631 3.84329C38.4925 3.6959 38.3968 3.55263 38.2494 3.52327C38.102 3.49391 38.2788 3.12461 38.2494 3.27199C37.6279 6.3868 33.9229 6.26738 31.0447 5.75156C30.961 5.60799 30.8708 5.46378 30.7737 5.31904C30.2403 4.52386 29.5188 3.78492 28.5914 3.18081C27.7643 2.64208 26.7734 2.21085 25.6061 1.94334C24.5894 1.67625 23.4865 1.72273 22.3227 1.99037C21.1778 2.25368 19.9733 2.73114 18.7343 3.33308C17.3488 4.00615 16.0242 5.04592 14.6832 6.09849C14.587 6.17401 14.4907 6.24962 14.3943 6.32514C14.0332 6.0268 13.6718 5.72553 13.313 5.42639C10.8465 3.37036 8.49864 1.4134 7.10153 1.11693C7.09333 1.11454 7.08493 1.1125 7.07636 1.11086C6.52781 1.004 5.9704 0.97439 5.42694 1.02205C4.88547 1.06953 4.35623 1.19361 3.8615 1.39427C2.15156 2.08782 1.23633 3.41076 1.04003 4.8346C0.942608 5.54121 1.02392 6.27177 1.27454 6.96125C1.52444 7.64879 1.94244 8.29531 2.51902 8.83601C3.87182 10.1046 6.0955 10.7934 9.05945 10.053C10.9708 9.57547 12.7001 8.33204 14.3864 7.02103C14.8462 7.39847 15.3043 7.76893 15.7553 8.12251C15.256 8.44419 14.7989 8.8373 14.3949 9.2968C13.6719 10.1191 13.1185 11.1539 12.7979 12.3716C12.6267 13.0219 12.5706 13.5978 12.6046 14.1028C12.6581 14.8988 12.9343 15.5207 13.3378 15.9823C13.742 16.4448 14.2712 16.7418 14.8309 16.889C15.1897 16.9835 15.5612 17.0165 15.92 16.9924C16.2438 16.9706 16.5559 16.8981 16.8333 16.7853C17.1192 16.6691 17.3712 16.5088 17.5652 16.3153C17.9411 15.9403 18.0203 15.4622 17.91 15.023C17.8543 14.8012 17.7488 14.5895 17.6083 14.4077C17.4674 14.2254 17.2897 14.0722 17.0901 13.9679C16.7197 13.7744 16.2811 13.7481 15.8621 14.0071C15.6639 14.1297 15.4839 14.3117 15.3454 14.5552C15.2254 14.7662 15.1362 15.0238 15.0937 15.3289C15.0732 15.4774 15.177 15.6145 15.3256 15.6351C15.4741 15.6556 15.6113 15.5518 15.6318 15.4033C15.6643 15.1697 15.7301 14.977 15.8176 14.8231C15.909 14.6625 16.0235 14.545 16.1471 14.4686C16.382 14.3233 16.6293 14.3389 16.8391 14.4485C16.9675 14.5155 17.084 14.617 17.1786 14.7394C17.2737 14.8624 17.345 15.0053 17.3825 15.1548C17.4495 15.4215 17.4041 15.7092 17.1823 15.9304C17.0406 16.0718 16.85 16.1916 16.6292 16.2814C16.4031 16.3733 16.1484 16.4324 15.8839 16.4502C15.5816 16.4705 15.2696 16.4429 14.9691 16.3638C14.5079 16.2425 14.0742 16.0004 13.7461 15.6251C13.4174 15.2489 13.1918 14.7343 13.1469 14.0666C13.1167 13.6173 13.1679 13.0998 13.3232 12.5098C13.6214 11.3773 14.1342 10.4171 14.8032 9.65615C15.218 9.18441 15.6926 8.78924 16.213 8.47709C17.4284 9.40699 18.5772 10.1855 19.5474 10.6089C20.6016 11.0689 21.4552 10.9543 22.0054 10.5698C22.2349 10.4095 22.4115 10.2021 22.529 9.96849C22.6467 9.73431 22.7044 9.47462 22.6956 9.21014C22.6758 8.61548 22.3241 7.99944 21.568 7.60709C21.0019 7.3134 20.2564 7.13354 19.4469 7.10702C18.7029 7.08265 17.9008 7.1879 17.1315 7.45382C16.8312 7.55761 16.5402 7.68296 16.2602 7.82904C15.7889 7.46269 15.3079 7.0753 14.8242 6.67896L15.0193 6.52588C16.3382 5.49061 17.641 4.46795 18.9704 3.82214C20.176 3.23646 21.3431 2.773 22.4439 2.51983C23.5259 2.271 24.543 2.2255 25.4679 2.46846L25.4774 2.47059C26.582 2.72268 27.5172 3.12879 28.2957 3.63586C29.158 4.19752 29.8281 4.88346 30.3228 5.62098L30.3248 5.62396C29.1931 5.4286 28.177 5.2934 27.4496 5.45588C25.9785 5.78452 25.2524 7.06236 25.1201 8.49418C25.071 9.02605 25.1046 9.5795 25.2129 10.1113C25.3215 10.6446 25.5055 11.1578 25.7569 11.6076C26.3832 12.7284 27.4199 13.4615 28.7552 13.1829C29.1598 13.0984 29.5634 12.9231 29.9403 12.6704C30.6055 12.2244 31.1904 11.5345 31.5495 10.6773C31.9069 9.82438 32.0416 8.80475 31.8098 7.69455C31.7194 7.2613 31.573 6.8145 31.362 6.35883C34.3838 6.89153 37.7697 7.31865 38.4631 3.84329ZM27.5666 5.98534C28.2909 5.82355 29.4349 6.01458 30.6962 6.24C30.9846 6.77787 31.1731 7.30237 31.2781 7.80512C31.4855 8.7988 31.3659 9.70909 31.0476 10.4689C30.7311 11.2245 30.219 11.8303 29.6382 12.2197C29.3195 12.4334 28.981 12.5811 28.6446 12.6513C27.5837 12.8726 26.7465 12.2661 26.2311 11.344C26.0069 10.9427 25.8423 10.4827 25.7446 10.0029C25.6466 9.52166 25.6161 9.02203 25.6604 8.54309C25.7723 7.33077 26.3675 6.2532 27.5666 5.98534ZM13.9564 6.66651C12.346 7.91434 10.6987 9.08318 8.92758 9.52563C6.16914 10.2147 4.12171 9.59443 2.89122 8.4405C2.37786 7.95908 2.00634 7.38522 1.78499 6.77626C1.56435 6.16924 1.49261 5.52707 1.57812 4.9069C1.7491 3.66676 2.55564 2.51068 4.06569 1.89821C4.50886 1.71846 4.98493 1.60714 5.47374 1.56427C5.96928 1.52081 6.47638 1.54758 6.97428 1.64458C6.97818 1.64533 6.98207 1.64596 6.98597 1.64654C8.24813 1.91028 10.549 3.82811 12.9663 5.84316C13.2949 6.11708 13.6256 6.39278 13.9564 6.66651ZM19.7643 10.1113C18.8901 9.72974 17.8497 9.03569 16.7396 8.19675C16.9246 8.11016 17.1142 8.03325 17.308 7.96627C18.0116 7.72307 18.7468 7.62686 19.4299 7.64924C20.1575 7.67307 20.8214 7.83151 21.3191 8.08977C21.8796 8.38058 22.1395 8.81555 22.1532 9.22715C22.159 9.40169 22.1212 9.57255 22.044 9.72608C21.9666 9.88019 21.8488 10.0178 21.6949 10.1254C21.2849 10.4119 20.6205 10.4849 19.7643 10.1113Z" stroke="#B4975A" stroke-width="0.4" mask="url(#path-1-outside-1)"/>
<mask id="path-2-outside-2" maskUnits="userSpaceOnUse" x="220" y="0" width="39" height="18" fill="black">
<rect fill="white" x="220" width="39" height="18"/>
<path d="M221.005 3.84329C220.976 3.6959 221.072 3.55263 221.219 3.52327C221.366 3.49391 221.19 3.12461 221.219 3.27199C221.84 6.3868 225.546 6.26738 228.424 5.75156C228.507 5.60799 228.598 5.46378 228.695 5.31904C229.228 4.52386 229.95 3.78492 230.877 3.18081C231.704 2.64208 232.695 2.21085 233.862 1.94334C234.879 1.67625 235.982 1.72273 237.146 1.99037C238.291 2.25368 239.495 2.73114 240.734 3.33308C242.12 4.00615 243.444 5.04592 244.785 6.09849C244.881 6.17401 244.978 6.24962 245.074 6.32514C245.435 6.0268 245.797 5.72553 246.155 5.42639C248.622 3.37036 250.97 1.4134 252.367 1.11693C252.375 1.11454 252.384 1.1125 252.392 1.11086C252.941 1.004 253.498 0.97439 254.042 1.02205C254.583 1.06953 255.112 1.19361 255.607 1.39427C257.317 2.08782 258.232 3.41076 258.428 4.8346C258.526 5.54121 258.445 6.27177 258.194 6.96125C257.944 7.64879 257.526 8.29531 256.949 8.83601C255.597 10.1046 253.373 10.7934 250.409 10.053C248.498 9.57547 246.768 8.33204 245.082 7.02103C244.622 7.39847 244.164 7.76893 243.713 8.12251C244.212 8.44419 244.67 8.8373 245.074 9.2968C245.797 10.1191 246.35 11.1539 246.671 12.3716C246.842 13.0219 246.898 13.5978 246.864 14.1028C246.81 14.8988 246.534 15.5207 246.131 15.9823C245.726 16.4448 245.197 16.7418 244.638 16.889C244.279 16.9835 243.907 17.0165 243.548 16.9924C243.225 16.9706 242.913 16.8981 242.635 16.7853C242.349 16.6691 242.097 16.5088 241.903 16.3153C241.527 15.9403 241.448 15.4622 241.558 15.023C241.614 14.8012 241.72 14.5895 241.86 14.4077C242.001 14.2254 242.179 14.0722 242.378 13.9679C242.749 13.7744 243.187 13.7481 243.606 14.0071C243.805 14.1297 243.985 14.3117 244.123 14.5552C244.243 14.7662 244.332 15.0238 244.375 15.3289C244.395 15.4774 244.291 15.6145 244.143 15.6351C243.994 15.6556 243.857 15.5518 243.837 15.4033C243.804 15.1697 243.738 14.977 243.651 14.8231C243.559 14.6625 243.445 14.545 243.321 14.4686C243.086 14.3233 242.839 14.3389 242.629 14.4485C242.501 14.5155 242.384 14.617 242.29 14.7394C242.195 14.8624 242.123 15.0053 242.086 15.1548C242.019 15.4215 242.064 15.7092 242.286 15.9304C242.428 16.0718 242.618 16.1916 242.839 16.2814C243.065 16.3733 243.32 16.4324 243.585 16.4502C243.887 16.4705 244.199 16.4429 244.499 16.3638C244.961 16.2425 245.394 16.0004 245.722 15.6251C246.051 15.2489 246.277 14.7343 246.322 14.0666C246.352 13.6173 246.301 13.0998 246.145 12.5098C245.847 11.3773 245.334 10.4171 244.665 9.65615C244.25 9.18441 243.776 8.78924 243.255 8.47709C242.04 9.40699 240.891 10.1855 239.921 10.6089C238.867 11.0689 238.013 10.9543 237.463 10.5698C237.234 10.4095 237.057 10.2021 236.939 9.96849C236.822 9.73431 236.764 9.47462 236.773 9.21014C236.793 8.61548 237.144 7.99944 237.9 7.60709C238.466 7.3134 239.212 7.13354 240.022 7.10702C240.766 7.08265 241.568 7.1879 242.337 7.45382C242.637 7.55761 242.928 7.68296 243.208 7.82904C243.68 7.46269 244.161 7.0753 244.644 6.67896L244.449 6.52588C243.13 5.49061 241.827 4.46795 240.498 3.82214C239.292 3.23646 238.125 2.773 237.024 2.51983C235.943 2.271 234.925 2.2255 234.001 2.46846L233.991 2.47059C232.886 2.72268 231.951 3.12879 231.173 3.63586C230.31 4.19752 229.64 4.88346 229.146 5.62098L229.144 5.62396C230.275 5.4286 231.291 5.2934 232.019 5.45588C233.49 5.78452 234.216 7.06236 234.348 8.49418C234.397 9.02605 234.364 9.5795 234.256 10.1113C234.147 10.6446 233.963 11.1578 233.712 11.6076C233.085 12.7284 232.049 13.4615 230.713 13.1829C230.309 13.0984 229.905 12.9231 229.528 12.6704C228.863 12.2244 228.278 11.5345 227.919 10.6773C227.562 9.82438 227.427 8.80475 227.659 7.69455C227.749 7.2613 227.895 6.8145 228.106 6.35883C225.085 6.89153 221.699 7.31865 221.005 3.84329ZM231.902 5.98534C231.178 5.82355 230.034 6.01458 228.772 6.24C228.484 6.77787 228.295 7.30237 228.19 7.80512C227.983 8.7988 228.103 9.70909 228.421 10.4689C228.737 11.2245 229.249 11.8303 229.83 12.2197C230.149 12.4334 230.487 12.5811 230.824 12.6513C231.885 12.8726 232.722 12.2661 233.237 11.344C233.462 10.9427 233.626 10.4827 233.724 10.0029C233.822 9.52166 233.852 9.02203 233.808 8.54309C233.696 7.33077 233.101 6.2532 231.902 5.98534ZM245.512 6.66651C247.122 7.91434 248.77 9.08318 250.541 9.52563C253.299 10.2147 255.347 9.59443 256.577 8.4405C257.091 7.95908 257.462 7.38522 257.683 6.77626C257.904 6.16924 257.976 5.52707 257.89 4.9069C257.719 3.66676 256.913 2.51068 255.403 1.89821C254.96 1.71846 254.484 1.60714 253.995 1.56427C253.499 1.52081 252.992 1.54758 252.494 1.64458C252.49 1.64533 252.486 1.64596 252.482 1.64654C251.22 1.91028 248.919 3.82811 246.502 5.84316C246.174 6.11708 245.843 6.39278 245.512 6.66651ZM239.704 10.1113C240.578 9.72974 241.619 9.03569 242.729 8.19675C242.544 8.11016 242.354 8.03325 242.16 7.96627C241.457 7.72307 240.722 7.62686 240.039 7.64924C239.311 7.67307 238.647 7.83151 238.149 8.08977C237.589 8.38058 237.329 8.81555 237.315 9.22715C237.309 9.40169 237.347 9.57255 237.424 9.72608C237.502 9.88019 237.62 10.0178 237.774 10.1254C238.184 10.4119 238.848 10.4849 239.704 10.1113Z"/>
</mask>
<path d="M221.005 3.84329C220.976 3.6959 221.072 3.55263 221.219 3.52327C221.366 3.49391 221.19 3.12461 221.219 3.27199C221.84 6.3868 225.546 6.26738 228.424 5.75156C228.507 5.60799 228.598 5.46378 228.695 5.31904C229.228 4.52386 229.95 3.78492 230.877 3.18081C231.704 2.64208 232.695 2.21085 233.862 1.94334C234.879 1.67625 235.982 1.72273 237.146 1.99037C238.291 2.25368 239.495 2.73114 240.734 3.33308C242.12 4.00615 243.444 5.04592 244.785 6.09849C244.881 6.17401 244.978 6.24962 245.074 6.32514C245.435 6.0268 245.797 5.72553 246.155 5.42639C248.622 3.37036 250.97 1.4134 252.367 1.11693C252.375 1.11454 252.384 1.1125 252.392 1.11086C252.941 1.004 253.498 0.97439 254.042 1.02205C254.583 1.06953 255.112 1.19361 255.607 1.39427C257.317 2.08782 258.232 3.41076 258.428 4.8346C258.526 5.54121 258.445 6.27177 258.194 6.96125C257.944 7.64879 257.526 8.29531 256.949 8.83601C255.597 10.1046 253.373 10.7934 250.409 10.053C248.498 9.57547 246.768 8.33204 245.082 7.02103C244.622 7.39847 244.164 7.76893 243.713 8.12251C244.212 8.44419 244.67 8.8373 245.074 9.2968C245.797 10.1191 246.35 11.1539 246.671 12.3716C246.842 13.0219 246.898 13.5978 246.864 14.1028C246.81 14.8988 246.534 15.5207 246.131 15.9823C245.726 16.4448 245.197 16.7418 244.638 16.889C244.279 16.9835 243.907 17.0165 243.548 16.9924C243.225 16.9706 242.913 16.8981 242.635 16.7853C242.349 16.6691 242.097 16.5088 241.903 16.3153C241.527 15.9403 241.448 15.4622 241.558 15.023C241.614 14.8012 241.72 14.5895 241.86 14.4077C242.001 14.2254 242.179 14.0722 242.378 13.9679C242.749 13.7744 243.187 13.7481 243.606 14.0071C243.805 14.1297 243.985 14.3117 244.123 14.5552C244.243 14.7662 244.332 15.0238 244.375 15.3289C244.395 15.4774 244.291 15.6145 244.143 15.6351C243.994 15.6556 243.857 15.5518 243.837 15.4033C243.804 15.1697 243.738 14.977 243.651 14.8231C243.559 14.6625 243.445 14.545 243.321 14.4686C243.086 14.3233 242.839 14.3389 242.629 14.4485C242.501 14.5155 242.384 14.617 242.29 14.7394C242.195 14.8624 242.123 15.0053 242.086 15.1548C242.019 15.4215 242.064 15.7092 242.286 15.9304C242.428 16.0718 242.618 16.1916 242.839 16.2814C243.065 16.3733 243.32 16.4324 243.585 16.4502C243.887 16.4705 244.199 16.4429 244.499 16.3638C244.961 16.2425 245.394 16.0004 245.722 15.6251C246.051 15.2489 246.277 14.7343 246.322 14.0666C246.352 13.6173 246.301 13.0998 246.145 12.5098C245.847 11.3773 245.334 10.4171 244.665 9.65615C244.25 9.18441 243.776 8.78924 243.255 8.47709C242.04 9.40699 240.891 10.1855 239.921 10.6089C238.867 11.0689 238.013 10.9543 237.463 10.5698C237.234 10.4095 237.057 10.2021 236.939 9.96849C236.822 9.73431 236.764 9.47462 236.773 9.21014C236.793 8.61548 237.144 7.99944 237.9 7.60709C238.466 7.3134 239.212 7.13354 240.022 7.10702C240.766 7.08265 241.568 7.1879 242.337 7.45382C242.637 7.55761 242.928 7.68296 243.208 7.82904C243.68 7.46269 244.161 7.0753 244.644 6.67896L244.449 6.52588C243.13 5.49061 241.827 4.46795 240.498 3.82214C239.292 3.23646 238.125 2.773 237.024 2.51983C235.943 2.271 234.925 2.2255 234.001 2.46846L233.991 2.47059C232.886 2.72268 231.951 3.12879 231.173 3.63586C230.31 4.19752 229.64 4.88346 229.146 5.62098L229.144 5.62396C230.275 5.4286 231.291 5.2934 232.019 5.45588C233.49 5.78452 234.216 7.06236 234.348 8.49418C234.397 9.02605 234.364 9.5795 234.256 10.1113C234.147 10.6446 233.963 11.1578 233.712 11.6076C233.085 12.7284 232.049 13.4615 230.713 13.1829C230.309 13.0984 229.905 12.9231 229.528 12.6704C228.863 12.2244 228.278 11.5345 227.919 10.6773C227.562 9.82438 227.427 8.80475 227.659 7.69455C227.749 7.2613 227.895 6.8145 228.106 6.35883C225.085 6.89153 221.699 7.31865 221.005 3.84329ZM231.902 5.98534C231.178 5.82355 230.034 6.01458 228.772 6.24C228.484 6.77787 228.295 7.30237 228.19 7.80512C227.983 8.7988 228.103 9.70909 228.421 10.4689C228.737 11.2245 229.249 11.8303 229.83 12.2197C230.149 12.4334 230.487 12.5811 230.824 12.6513C231.885 12.8726 232.722 12.2661 233.237 11.344C233.462 10.9427 233.626 10.4827 233.724 10.0029C233.822 9.52166 233.852 9.02203 233.808 8.54309C233.696 7.33077 233.101 6.2532 231.902 5.98534ZM245.512 6.66651C247.122 7.91434 248.77 9.08318 250.541 9.52563C253.299 10.2147 255.347 9.59443 256.577 8.4405C257.091 7.95908 257.462 7.38522 257.683 6.77626C257.904 6.16924 257.976 5.52707 257.89 4.9069C257.719 3.66676 256.913 2.51068 255.403 1.89821C254.96 1.71846 254.484 1.60714 253.995 1.56427C253.499 1.52081 252.992 1.54758 252.494 1.64458C252.49 1.64533 252.486 1.64596 252.482 1.64654C251.22 1.91028 248.919 3.82811 246.502 5.84316C246.174 6.11708 245.843 6.39278 245.512 6.66651ZM239.704 10.1113C240.578 9.72974 241.619 9.03569 242.729 8.19675C242.544 8.11016 242.354 8.03325 242.16 7.96627C241.457 7.72307 240.722 7.62686 240.039 7.64924C239.311 7.67307 238.647 7.83151 238.149 8.08977C237.589 8.38058 237.329 8.81555 237.315 9.22715C237.309 9.40169 237.347 9.57255 237.424 9.72608C237.502 9.88019 237.62 10.0178 237.774 10.1254C238.184 10.4119 238.848 10.4849 239.704 10.1113Z" fill="#B4975A"/>
<path d="M221.005 3.84329C220.976 3.6959 221.072 3.55263 221.219 3.52327C221.366 3.49391 221.19 3.12461 221.219 3.27199C221.84 6.3868 225.546 6.26738 228.424 5.75156C228.507 5.60799 228.598 5.46378 228.695 5.31904C229.228 4.52386 229.95 3.78492 230.877 3.18081C231.704 2.64208 232.695 2.21085 233.862 1.94334C234.879 1.67625 235.982 1.72273 237.146 1.99037C238.291 2.25368 239.495 2.73114 240.734 3.33308C242.12 4.00615 243.444 5.04592 244.785 6.09849C244.881 6.17401 244.978 6.24962 245.074 6.32514C245.435 6.0268 245.797 5.72553 246.155 5.42639C248.622 3.37036 250.97 1.4134 252.367 1.11693C252.375 1.11454 252.384 1.1125 252.392 1.11086C252.941 1.004 253.498 0.97439 254.042 1.02205C254.583 1.06953 255.112 1.19361 255.607 1.39427C257.317 2.08782 258.232 3.41076 258.428 4.8346C258.526 5.54121 258.445 6.27177 258.194 6.96125C257.944 7.64879 257.526 8.29531 256.949 8.83601C255.597 10.1046 253.373 10.7934 250.409 10.053C248.498 9.57547 246.768 8.33204 245.082 7.02103C244.622 7.39847 244.164 7.76893 243.713 8.12251C244.212 8.44419 244.67 8.8373 245.074 9.2968C245.797 10.1191 246.35 11.1539 246.671 12.3716C246.842 13.0219 246.898 13.5978 246.864 14.1028C246.81 14.8988 246.534 15.5207 246.131 15.9823C245.726 16.4448 245.197 16.7418 244.638 16.889C244.279 16.9835 243.907 17.0165 243.548 16.9924C243.225 16.9706 242.913 16.8981 242.635 16.7853C242.349 16.6691 242.097 16.5088 241.903 16.3153C241.527 15.9403 241.448 15.4622 241.558 15.023C241.614 14.8012 241.72 14.5895 241.86 14.4077C242.001 14.2254 242.179 14.0722 242.378 13.9679C242.749 13.7744 243.187 13.7481 243.606 14.0071C243.805 14.1297 243.985 14.3117 244.123 14.5552C244.243 14.7662 244.332 15.0238 244.375 15.3289C244.395 15.4774 244.291 15.6145 244.143 15.6351C243.994 15.6556 243.857 15.5518 243.837 15.4033C243.804 15.1697 243.738 14.977 243.651 14.8231C243.559 14.6625 243.445 14.545 243.321 14.4686C243.086 14.3233 242.839 14.3389 242.629 14.4485C242.501 14.5155 242.384 14.617 242.29 14.7394C242.195 14.8624 242.123 15.0053 242.086 15.1548C242.019 15.4215 242.064 15.7092 242.286 15.9304C242.428 16.0718 242.618 16.1916 242.839 16.2814C243.065 16.3733 243.32 16.4324 243.585 16.4502C243.887 16.4705 244.199 16.4429 244.499 16.3638C244.961 16.2425 245.394 16.0004 245.722 15.6251C246.051 15.2489 246.277 14.7343 246.322 14.0666C246.352 13.6173 246.301 13.0998 246.145 12.5098C245.847 11.3773 245.334 10.4171 244.665 9.65615C244.25 9.18441 243.776 8.78924 243.255 8.47709C242.04 9.40699 240.891 10.1855 239.921 10.6089C238.867 11.0689 238.013 10.9543 237.463 10.5698C237.234 10.4095 237.057 10.2021 236.939 9.96849C236.822 9.73431 236.764 9.47462 236.773 9.21014C236.793 8.61548 237.144 7.99944 237.9 7.60709C238.466 7.3134 239.212 7.13354 240.022 7.10702C240.766 7.08265 241.568 7.1879 242.337 7.45382C242.637 7.55761 242.928 7.68296 243.208 7.82904C243.68 7.46269 244.161 7.0753 244.644 6.67896L244.449 6.52588C243.13 5.49061 241.827 4.46795 240.498 3.82214C239.292 3.23646 238.125 2.773 237.024 2.51983C235.943 2.271 234.925 2.2255 234.001 2.46846L233.991 2.47059C232.886 2.72268 231.951 3.12879 231.173 3.63586C230.31 4.19752 229.64 4.88346 229.146 5.62098L229.144 5.62396C230.275 5.4286 231.291 5.2934 232.019 5.45588C233.49 5.78452 234.216 7.06236 234.348 8.49418C234.397 9.02605 234.364 9.5795 234.256 10.1113C234.147 10.6446 233.963 11.1578 233.712 11.6076C233.085 12.7284 232.049 13.4615 230.713 13.1829C230.309 13.0984 229.905 12.9231 229.528 12.6704C228.863 12.2244 228.278 11.5345 227.919 10.6773C227.562 9.82438 227.427 8.80475 227.659 7.69455C227.749 7.2613 227.895 6.8145 228.106 6.35883C225.085 6.89153 221.699 7.31865 221.005 3.84329ZM231.902 5.98534C231.178 5.82355 230.034 6.01458 228.772 6.24C228.484 6.77787 228.295 7.30237 228.19 7.80512C227.983 8.7988 228.103 9.70909 228.421 10.4689C228.737 11.2245 229.249 11.8303 229.83 12.2197C230.149 12.4334 230.487 12.5811 230.824 12.6513C231.885 12.8726 232.722 12.2661 233.237 11.344C233.462 10.9427 233.626 10.4827 233.724 10.0029C233.822 9.52166 233.852 9.02203 233.808 8.54309C233.696 7.33077 233.101 6.2532 231.902 5.98534ZM245.512 6.66651C247.122 7.91434 248.77 9.08318 250.541 9.52563C253.299 10.2147 255.347 9.59443 256.577 8.4405C257.091 7.95908 257.462 7.38522 257.683 6.77626C257.904 6.16924 257.976 5.52707 257.89 4.9069C257.719 3.66676 256.913 2.51068 255.403 1.89821C254.96 1.71846 254.484 1.60714 253.995 1.56427C253.499 1.52081 252.992 1.54758 252.494 1.64458C252.49 1.64533 252.486 1.64596 252.482 1.64654C251.22 1.91028 248.919 3.82811 246.502 5.84316C246.174 6.11708 245.843 6.39278 245.512 6.66651ZM239.704 10.1113C240.578 9.72974 241.619 9.03569 242.729 8.19675C242.544 8.11016 242.354 8.03325 242.16 7.96627C241.457 7.72307 240.722 7.62686 240.039 7.64924C239.311 7.67307 238.647 7.83151 238.149 8.08977C237.589 8.38058 237.329 8.81555 237.315 9.22715C237.309 9.40169 237.347 9.57255 237.424 9.72608C237.502 9.88019 237.62 10.0178 237.774 10.1254C238.184 10.4119 238.848 10.4849 239.704 10.1113Z" stroke="#B4975A" stroke-width="0.4" mask="url(#path-2-outside-2)"/>
<line x1="38" y1="3.5" x2="221" y2="3.5" stroke="#B4975A"/>
</svg>
