<svg width="219" height="24" viewBox="0 0 219 24" fill="none" xmlns="http://www.w3.org/2000/svg">
<mask id="path-1-outside-1" maskUnits="userSpaceOnUse" x="179.532" y="6" width="39" height="18" fill="black">
<rect fill="white" x="179.532" y="6" width="39" height="18"/>
<path d="M180.537 9.84329C180.508 9.6959 180.603 9.55263 180.751 9.52327C180.898 9.49391 180.721 9.12461 180.751 9.27199C181.372 12.3868 185.077 12.2674 187.955 11.7516C188.039 11.608 188.129 11.4638 188.226 11.319C188.76 10.5239 189.481 9.78492 190.409 9.18081C191.236 8.64208 192.227 8.21085 193.394 7.94334C194.411 7.67625 195.514 7.72273 196.677 7.99037C197.822 8.25368 199.027 8.73114 200.266 9.33308C201.651 10.0062 202.976 11.0459 204.317 12.0985C204.413 12.174 204.509 12.2496 204.606 12.3251C204.967 12.0268 205.328 11.7255 205.687 11.4264C208.154 9.37036 210.501 7.4134 211.899 7.11693C211.907 7.11454 211.915 7.1125 211.924 7.11086C212.472 7.004 213.03 6.97439 213.573 7.02205C214.115 7.06953 214.644 7.19361 215.139 7.39427C216.849 8.08782 217.764 9.41076 217.96 10.8346C218.057 11.5412 217.976 12.2718 217.726 12.9613C217.476 13.6488 217.058 14.2953 216.481 14.836C215.128 16.1046 212.905 16.7934 209.941 16.053C208.029 15.5755 206.3 14.332 204.614 13.021C204.154 13.3985 203.696 13.7689 203.245 14.1225C203.744 14.4442 204.201 14.8373 204.605 15.2968C205.328 16.1191 205.882 17.1539 206.202 18.3716C206.373 19.0219 206.429 19.5978 206.395 20.1028C206.342 20.8988 206.066 21.5207 205.662 21.9823C205.258 22.4448 204.729 22.7418 204.169 22.889C203.81 22.9835 203.439 23.0165 203.08 22.9924C202.756 22.9706 202.444 22.8981 202.167 22.7853C201.881 22.6691 201.629 22.5088 201.435 22.3153C201.059 21.9403 200.98 21.4622 201.09 21.023C201.146 20.8012 201.251 20.5895 201.392 20.4077C201.533 20.2254 201.71 20.0722 201.91 19.9679C202.28 19.7744 202.719 19.7481 203.138 20.0071C203.336 20.1297 203.516 20.3117 203.655 20.5552C203.775 20.7662 203.864 21.0238 203.906 21.3289C203.927 21.4774 203.823 21.6145 203.675 21.6351C203.526 21.6556 203.389 21.5518 203.368 21.4033C203.336 21.1697 203.27 20.977 203.182 20.8231C203.091 20.6625 202.977 20.545 202.853 20.4686C202.618 20.3233 202.371 20.3389 202.161 20.4485C202.033 20.5155 201.916 20.617 201.821 20.7394C201.726 20.8624 201.655 21.0053 201.618 21.1548C201.551 21.4215 201.596 21.7092 201.818 21.9304C201.96 22.0718 202.15 22.1916 202.371 22.2814C202.597 22.3733 202.852 22.4324 203.116 22.4502C203.418 22.4705 203.73 22.4429 204.031 22.3638C204.492 22.2425 204.926 22.0004 205.254 21.6251C205.583 21.2489 205.808 20.7343 205.853 20.0666C205.883 19.6173 205.832 19.0998 205.677 18.5098C205.379 17.3773 204.866 16.4171 204.197 15.6562C203.782 15.1844 203.307 14.7892 202.787 14.4771C201.572 15.407 200.423 16.1855 199.453 16.6089C198.398 17.0689 197.545 16.9543 196.995 16.5698C196.765 16.4095 196.589 16.2021 196.471 15.9685C196.353 15.7343 196.296 15.4746 196.305 15.2101C196.324 14.6155 196.676 13.9994 197.432 13.6071C197.998 13.3134 198.744 13.1335 199.553 13.107C200.297 13.0826 201.099 13.1879 201.869 13.4538C202.169 13.5576 202.46 13.683 202.74 13.829C203.211 13.4627 203.692 13.0753 204.176 12.679L203.981 12.5259C202.662 11.4906 201.359 10.4679 200.03 9.82214C198.824 9.23646 197.657 8.773 196.556 8.51983C195.474 8.271 194.457 8.2255 193.532 8.46846L193.523 8.47059C192.418 8.72268 191.483 9.12879 190.704 9.63586C189.842 10.1975 189.172 10.8835 188.677 11.621L188.675 11.624C189.807 11.4286 190.823 11.2934 191.55 11.4559C193.022 11.7845 193.748 13.0624 193.88 14.4942C193.929 15.026 193.895 15.5795 193.787 16.1113C193.679 16.6446 193.495 17.1578 193.243 17.6076C192.617 18.7284 191.58 19.4615 190.245 19.1829C189.84 19.0984 189.437 18.9231 189.06 18.6704C188.395 18.2244 187.81 17.5345 187.451 16.6773C187.093 15.8244 186.958 14.8048 187.19 13.6946C187.281 13.2613 187.427 12.8145 187.638 12.3588C184.616 12.8915 181.23 13.3187 180.537 9.84329ZM191.433 11.9853C190.709 11.8235 189.565 12.0146 188.304 12.24C188.015 12.7779 187.827 13.3024 187.722 13.8051C187.515 14.7988 187.634 15.7091 187.952 16.4689C188.269 17.2245 188.781 17.8303 189.362 18.2197C189.681 18.4334 190.019 18.5811 190.355 18.6513C191.416 18.8726 192.254 18.2661 192.769 17.344C192.993 16.9427 193.158 16.4827 193.255 16.0029C193.353 15.5217 193.384 15.022 193.34 14.5431C193.228 13.3308 192.633 12.2532 191.433 11.9853ZM205.044 12.6665C206.654 13.9143 208.301 15.0832 210.072 15.5256C212.831 16.2147 214.878 15.5944 216.109 14.4405C216.622 13.9591 216.994 13.3852 217.215 12.7763C217.436 12.1692 217.507 11.5271 217.422 10.9069C217.251 9.66676 216.444 8.51068 214.934 7.89821C214.491 7.71846 214.015 7.60714 213.526 7.56427C213.031 7.52081 212.524 7.54758 212.026 7.64458C212.022 7.64533 212.018 7.64596 212.014 7.64654C210.752 7.91028 208.451 9.82811 206.034 11.8432C205.705 12.1171 205.374 12.3928 205.044 12.6665ZM199.236 16.1113C200.11 15.7297 201.15 15.0357 202.26 14.1968C202.075 14.1102 201.886 14.0333 201.692 13.9663C200.988 13.7231 200.253 13.6269 199.57 13.6492C198.843 13.6731 198.179 13.8315 197.681 14.0898C197.12 14.3806 196.861 14.8156 196.847 15.2271C196.841 15.4017 196.879 15.5725 196.956 15.7261C197.033 15.8802 197.151 16.0178 197.305 16.1254C197.715 16.4119 198.38 16.4849 199.236 16.1113Z"/>
</mask>
<path d="M180.537 9.84329C180.508 9.6959 180.603 9.55263 180.751 9.52327C180.898 9.49391 180.721 9.12461 180.751 9.27199C181.372 12.3868 185.077 12.2674 187.955 11.7516C188.039 11.608 188.129 11.4638 188.226 11.319C188.76 10.5239 189.481 9.78492 190.409 9.18081C191.236 8.64208 192.227 8.21085 193.394 7.94334C194.411 7.67625 195.514 7.72273 196.677 7.99037C197.822 8.25368 199.027 8.73114 200.266 9.33308C201.651 10.0062 202.976 11.0459 204.317 12.0985C204.413 12.174 204.509 12.2496 204.606 12.3251C204.967 12.0268 205.328 11.7255 205.687 11.4264C208.154 9.37036 210.501 7.4134 211.899 7.11693C211.907 7.11454 211.915 7.1125 211.924 7.11086C212.472 7.004 213.03 6.97439 213.573 7.02205C214.115 7.06953 214.644 7.19361 215.139 7.39427C216.849 8.08782 217.764 9.41076 217.96 10.8346C218.057 11.5412 217.976 12.2718 217.726 12.9613C217.476 13.6488 217.058 14.2953 216.481 14.836C215.128 16.1046 212.905 16.7934 209.941 16.053C208.029 15.5755 206.3 14.332 204.614 13.021C204.154 13.3985 203.696 13.7689 203.245 14.1225C203.744 14.4442 204.201 14.8373 204.605 15.2968C205.328 16.1191 205.882 17.1539 206.202 18.3716C206.373 19.0219 206.429 19.5978 206.395 20.1028C206.342 20.8988 206.066 21.5207 205.662 21.9823C205.258 22.4448 204.729 22.7418 204.169 22.889C203.81 22.9835 203.439 23.0165 203.08 22.9924C202.756 22.9706 202.444 22.8981 202.167 22.7853C201.881 22.6691 201.629 22.5088 201.435 22.3153C201.059 21.9403 200.98 21.4622 201.09 21.023C201.146 20.8012 201.251 20.5895 201.392 20.4077C201.533 20.2254 201.71 20.0722 201.91 19.9679C202.28 19.7744 202.719 19.7481 203.138 20.0071C203.336 20.1297 203.516 20.3117 203.655 20.5552C203.775 20.7662 203.864 21.0238 203.906 21.3289C203.927 21.4774 203.823 21.6145 203.675 21.6351C203.526 21.6556 203.389 21.5518 203.368 21.4033C203.336 21.1697 203.27 20.977 203.182 20.8231C203.091 20.6625 202.977 20.545 202.853 20.4686C202.618 20.3233 202.371 20.3389 202.161 20.4485C202.033 20.5155 201.916 20.617 201.821 20.7394C201.726 20.8624 201.655 21.0053 201.618 21.1548C201.551 21.4215 201.596 21.7092 201.818 21.9304C201.96 22.0718 202.15 22.1916 202.371 22.2814C202.597 22.3733 202.852 22.4324 203.116 22.4502C203.418 22.4705 203.73 22.4429 204.031 22.3638C204.492 22.2425 204.926 22.0004 205.254 21.6251C205.583 21.2489 205.808 20.7343 205.853 20.0666C205.883 19.6173 205.832 19.0998 205.677 18.5098C205.379 17.3773 204.866 16.4171 204.197 15.6562C203.782 15.1844 203.307 14.7892 202.787 14.4771C201.572 15.407 200.423 16.1855 199.453 16.6089C198.398 17.0689 197.545 16.9543 196.995 16.5698C196.765 16.4095 196.589 16.2021 196.471 15.9685C196.353 15.7343 196.296 15.4746 196.305 15.2101C196.324 14.6155 196.676 13.9994 197.432 13.6071C197.998 13.3134 198.744 13.1335 199.553 13.107C200.297 13.0826 201.099 13.1879 201.869 13.4538C202.169 13.5576 202.46 13.683 202.74 13.829C203.211 13.4627 203.692 13.0753 204.176 12.679L203.981 12.5259C202.662 11.4906 201.359 10.4679 200.03 9.82214C198.824 9.23646 197.657 8.773 196.556 8.51983C195.474 8.271 194.457 8.2255 193.532 8.46846L193.523 8.47059C192.418 8.72268 191.483 9.12879 190.704 9.63586C189.842 10.1975 189.172 10.8835 188.677 11.621L188.675 11.624C189.807 11.4286 190.823 11.2934 191.55 11.4559C193.022 11.7845 193.748 13.0624 193.88 14.4942C193.929 15.026 193.895 15.5795 193.787 16.1113C193.679 16.6446 193.495 17.1578 193.243 17.6076C192.617 18.7284 191.58 19.4615 190.245 19.1829C189.84 19.0984 189.437 18.9231 189.06 18.6704C188.395 18.2244 187.81 17.5345 187.451 16.6773C187.093 15.8244 186.958 14.8048 187.19 13.6946C187.281 13.2613 187.427 12.8145 187.638 12.3588C184.616 12.8915 181.23 13.3187 180.537 9.84329ZM191.433 11.9853C190.709 11.8235 189.565 12.0146 188.304 12.24C188.015 12.7779 187.827 13.3024 187.722 13.8051C187.515 14.7988 187.634 15.7091 187.952 16.4689C188.269 17.2245 188.781 17.8303 189.362 18.2197C189.681 18.4334 190.019 18.5811 190.355 18.6513C191.416 18.8726 192.254 18.2661 192.769 17.344C192.993 16.9427 193.158 16.4827 193.255 16.0029C193.353 15.5217 193.384 15.022 193.34 14.5431C193.228 13.3308 192.633 12.2532 191.433 11.9853ZM205.044 12.6665C206.654 13.9143 208.301 15.0832 210.072 15.5256C212.831 16.2147 214.878 15.5944 216.109 14.4405C216.622 13.9591 216.994 13.3852 217.215 12.7763C217.436 12.1692 217.507 11.5271 217.422 10.9069C217.251 9.66676 216.444 8.51068 214.934 7.89821C214.491 7.71846 214.015 7.60714 213.526 7.56427C213.031 7.52081 212.524 7.54758 212.026 7.64458C212.022 7.64533 212.018 7.64596 212.014 7.64654C210.752 7.91028 208.451 9.82811 206.034 11.8432C205.705 12.1171 205.374 12.3928 205.044 12.6665ZM199.236 16.1113C200.11 15.7297 201.15 15.0357 202.26 14.1968C202.075 14.1102 201.886 14.0333 201.692 13.9663C200.988 13.7231 200.253 13.6269 199.57 13.6492C198.843 13.6731 198.179 13.8315 197.681 14.0898C197.12 14.3806 196.861 14.8156 196.847 15.2271C196.841 15.4017 196.879 15.5725 196.956 15.7261C197.033 15.8802 197.151 16.0178 197.305 16.1254C197.715 16.4119 198.38 16.4849 199.236 16.1113Z" fill="#B4975A"/>
<path d="M180.537 9.84329C180.508 9.6959 180.603 9.55263 180.751 9.52327C180.898 9.49391 180.721 9.12461 180.751 9.27199C181.372 12.3868 185.077 12.2674 187.955 11.7516C188.039 11.608 188.129 11.4638 188.226 11.319C188.76 10.5239 189.481 9.78492 190.409 9.18081C191.236 8.64208 192.227 8.21085 193.394 7.94334C194.411 7.67625 195.514 7.72273 196.677 7.99037C197.822 8.25368 199.027 8.73114 200.266 9.33308C201.651 10.0062 202.976 11.0459 204.317 12.0985C204.413 12.174 204.509 12.2496 204.606 12.3251C204.967 12.0268 205.328 11.7255 205.687 11.4264C208.154 9.37036 210.501 7.4134 211.899 7.11693C211.907 7.11454 211.915 7.1125 211.924 7.11086C212.472 7.004 213.03 6.97439 213.573 7.02205C214.115 7.06953 214.644 7.19361 215.139 7.39427C216.849 8.08782 217.764 9.41076 217.96 10.8346C218.057 11.5412 217.976 12.2718 217.726 12.9613C217.476 13.6488 217.058 14.2953 216.481 14.836C215.128 16.1046 212.905 16.7934 209.941 16.053C208.029 15.5755 206.3 14.332 204.614 13.021C204.154 13.3985 203.696 13.7689 203.245 14.1225C203.744 14.4442 204.201 14.8373 204.605 15.2968C205.328 16.1191 205.882 17.1539 206.202 18.3716C206.373 19.0219 206.429 19.5978 206.395 20.1028C206.342 20.8988 206.066 21.5207 205.662 21.9823C205.258 22.4448 204.729 22.7418 204.169 22.889C203.81 22.9835 203.439 23.0165 203.08 22.9924C202.756 22.9706 202.444 22.8981 202.167 22.7853C201.881 22.6691 201.629 22.5088 201.435 22.3153C201.059 21.9403 200.98 21.4622 201.09 21.023C201.146 20.8012 201.251 20.5895 201.392 20.4077C201.533 20.2254 201.71 20.0722 201.91 19.9679C202.28 19.7744 202.719 19.7481 203.138 20.0071C203.336 20.1297 203.516 20.3117 203.655 20.5552C203.775 20.7662 203.864 21.0238 203.906 21.3289C203.927 21.4774 203.823 21.6145 203.675 21.6351C203.526 21.6556 203.389 21.5518 203.368 21.4033C203.336 21.1697 203.27 20.977 203.182 20.8231C203.091 20.6625 202.977 20.545 202.853 20.4686C202.618 20.3233 202.371 20.3389 202.161 20.4485C202.033 20.5155 201.916 20.617 201.821 20.7394C201.726 20.8624 201.655 21.0053 201.618 21.1548C201.551 21.4215 201.596 21.7092 201.818 21.9304C201.96 22.0718 202.15 22.1916 202.371 22.2814C202.597 22.3733 202.852 22.4324 203.116 22.4502C203.418 22.4705 203.73 22.4429 204.031 22.3638C204.492 22.2425 204.926 22.0004 205.254 21.6251C205.583 21.2489 205.808 20.7343 205.853 20.0666C205.883 19.6173 205.832 19.0998 205.677 18.5098C205.379 17.3773 204.866 16.4171 204.197 15.6562C203.782 15.1844 203.307 14.7892 202.787 14.4771C201.572 15.407 200.423 16.1855 199.453 16.6089C198.398 17.0689 197.545 16.9543 196.995 16.5698C196.765 16.4095 196.589 16.2021 196.471 15.9685C196.353 15.7343 196.296 15.4746 196.305 15.2101C196.324 14.6155 196.676 13.9994 197.432 13.6071C197.998 13.3134 198.744 13.1335 199.553 13.107C200.297 13.0826 201.099 13.1879 201.869 13.4538C202.169 13.5576 202.46 13.683 202.74 13.829C203.211 13.4627 203.692 13.0753 204.176 12.679L203.981 12.5259C202.662 11.4906 201.359 10.4679 200.03 9.82214C198.824 9.23646 197.657 8.773 196.556 8.51983C195.474 8.271 194.457 8.2255 193.532 8.46846L193.523 8.47059C192.418 8.72268 191.483 9.12879 190.704 9.63586C189.842 10.1975 189.172 10.8835 188.677 11.621L188.675 11.624C189.807 11.4286 190.823 11.2934 191.55 11.4559C193.022 11.7845 193.748 13.0624 193.88 14.4942C193.929 15.026 193.895 15.5795 193.787 16.1113C193.679 16.6446 193.495 17.1578 193.243 17.6076C192.617 18.7284 191.58 19.4615 190.245 19.1829C189.84 19.0984 189.437 18.9231 189.06 18.6704C188.395 18.2244 187.81 17.5345 187.451 16.6773C187.093 15.8244 186.958 14.8048 187.19 13.6946C187.281 13.2613 187.427 12.8145 187.638 12.3588C184.616 12.8915 181.23 13.3187 180.537 9.84329ZM191.433 11.9853C190.709 11.8235 189.565 12.0146 188.304 12.24C188.015 12.7779 187.827 13.3024 187.722 13.8051C187.515 14.7988 187.634 15.7091 187.952 16.4689C188.269 17.2245 188.781 17.8303 189.362 18.2197C189.681 18.4334 190.019 18.5811 190.355 18.6513C191.416 18.8726 192.254 18.2661 192.769 17.344C192.993 16.9427 193.158 16.4827 193.255 16.0029C193.353 15.5217 193.384 15.022 193.34 14.5431C193.228 13.3308 192.633 12.2532 191.433 11.9853ZM205.044 12.6665C206.654 13.9143 208.301 15.0832 210.072 15.5256C212.831 16.2147 214.878 15.5944 216.109 14.4405C216.622 13.9591 216.994 13.3852 217.215 12.7763C217.436 12.1692 217.507 11.5271 217.422 10.9069C217.251 9.66676 216.444 8.51068 214.934 7.89821C214.491 7.71846 214.015 7.60714 213.526 7.56427C213.031 7.52081 212.524 7.54758 212.026 7.64458C212.022 7.64533 212.018 7.64596 212.014 7.64654C210.752 7.91028 208.451 9.82811 206.034 11.8432C205.705 12.1171 205.374 12.3928 205.044 12.6665ZM199.236 16.1113C200.11 15.7297 201.15 15.0357 202.26 14.1968C202.075 14.1102 201.886 14.0333 201.692 13.9663C200.988 13.7231 200.253 13.6269 199.57 13.6492C198.843 13.6731 198.179 13.8315 197.681 14.0898C197.12 14.3806 196.861 14.8156 196.847 15.2271C196.841 15.4017 196.879 15.5725 196.956 15.7261C197.033 15.8802 197.151 16.0178 197.305 16.1254C197.715 16.4119 198.38 16.4849 199.236 16.1113Z" stroke="#B4975A" mask="url(#path-1-outside-1)"/>
<line y1="-0.75" x2="163" y2="-0.75" transform="matrix(-1 0 0 1 181 10)" stroke="#B4975A" stroke-width="1.5"/>
<path d="M19.293 10L10.0001 0.707046L0.707108 10L10.0001 19.293L19.293 10Z" fill="#B4975A" stroke="#B4975A"/>
</svg>
