<svg width="219" height="54" viewBox="0 0 219 54" fill="none" xmlns="http://www.w3.org/2000/svg">
<mask id="path-1-outside-1" maskUnits="userSpaceOnUse" x="179.532" y="36" width="39" height="18" fill="black">
<rect fill="white" x="179.532" y="36" width="39" height="18"/>
<path d="M180.537 39.8433C180.508 39.6959 180.603 39.5526 180.751 39.5233C180.898 39.4939 180.721 39.1246 180.751 39.272C181.372 42.3868 185.077 42.2674 187.955 41.7516C188.039 41.608 188.129 41.4638 188.226 41.319C188.76 40.5239 189.481 39.7849 190.409 39.1808C191.236 38.6421 192.227 38.2109 193.394 37.9433C194.411 37.6763 195.514 37.7227 196.677 37.9904C197.822 38.2537 199.027 38.7311 200.266 39.3331C201.651 40.0062 202.976 41.0459 204.317 42.0985C204.413 42.174 204.509 42.2496 204.606 42.3251C204.967 42.0268 205.328 41.7255 205.687 41.4264C208.154 39.3704 210.501 37.4134 211.899 37.1169C211.907 37.1145 211.915 37.1125 211.924 37.1109C212.472 37.004 213.03 36.9744 213.573 37.022C214.115 37.0695 214.644 37.1936 215.139 37.3943C216.849 38.0878 217.764 39.4108 217.96 40.8346C218.057 41.5412 217.976 42.2718 217.726 42.9613C217.476 43.6488 217.058 44.2953 216.481 44.836C215.128 46.1046 212.905 46.7934 209.941 46.053C208.029 45.5755 206.3 44.332 204.614 43.021C204.154 43.3985 203.696 43.7689 203.245 44.1225C203.744 44.4442 204.201 44.8373 204.605 45.2968C205.328 46.1191 205.882 47.1539 206.202 48.3716C206.373 49.0219 206.429 49.5978 206.395 50.1028C206.342 50.8988 206.066 51.5207 205.662 51.9823C205.258 52.4448 204.729 52.7418 204.169 52.889C203.81 52.9835 203.439 53.0165 203.08 52.9924C202.756 52.9706 202.444 52.8981 202.167 52.7853C201.881 52.6691 201.629 52.5088 201.435 52.3153C201.059 51.9403 200.98 51.4622 201.09 51.023C201.146 50.8012 201.251 50.5895 201.392 50.4077C201.533 50.2254 201.71 50.0722 201.91 49.9679C202.28 49.7744 202.719 49.7481 203.138 50.0071C203.336 50.1297 203.516 50.3117 203.655 50.5552C203.775 50.7662 203.864 51.0238 203.906 51.3289C203.927 51.4774 203.823 51.6145 203.675 51.6351C203.526 51.6556 203.389 51.5518 203.368 51.4033C203.336 51.1697 203.27 50.977 203.182 50.8231C203.091 50.6625 202.977 50.545 202.853 50.4686C202.618 50.3233 202.371 50.3389 202.161 50.4485C202.033 50.5155 201.916 50.617 201.821 50.7394C201.726 50.8624 201.655 51.0053 201.618 51.1548C201.551 51.4215 201.596 51.7092 201.818 51.9304C201.96 52.0718 202.15 52.1916 202.371 52.2814C202.597 52.3733 202.852 52.4324 203.116 52.4502C203.418 52.4705 203.73 52.4429 204.031 52.3638C204.492 52.2425 204.926 52.0004 205.254 51.6251C205.583 51.2489 205.808 50.7343 205.853 50.0666C205.883 49.6173 205.832 49.0998 205.677 48.5098C205.379 47.3773 204.866 46.4171 204.197 45.6562C203.782 45.1844 203.307 44.7892 202.787 44.4771C201.572 45.407 200.423 46.1855 199.453 46.6089C198.398 47.0689 197.545 46.9543 196.995 46.5698C196.765 46.4095 196.589 46.2021 196.471 45.9685C196.353 45.7343 196.296 45.4746 196.305 45.2101C196.324 44.6155 196.676 43.9994 197.432 43.6071C197.998 43.3134 198.744 43.1335 199.553 43.107C200.297 43.0826 201.099 43.1879 201.869 43.4538C202.169 43.5576 202.46 43.683 202.74 43.829C203.211 43.4627 203.692 43.0753 204.176 42.679L203.981 42.5259C202.662 41.4906 201.359 40.4679 200.03 39.8221C198.824 39.2365 197.657 38.773 196.556 38.5198C195.474 38.271 194.457 38.2255 193.532 38.4685L193.523 38.4706C192.418 38.7227 191.483 39.1288 190.704 39.6359C189.842 40.1975 189.172 40.8835 188.677 41.621L188.675 41.624C189.807 41.4286 190.823 41.2934 191.55 41.4559C193.022 41.7845 193.748 43.0624 193.88 44.4942C193.929 45.026 193.895 45.5795 193.787 46.1113C193.679 46.6446 193.495 47.1578 193.243 47.6076C192.617 48.7284 191.58 49.4615 190.245 49.1829C189.84 49.0984 189.437 48.9231 189.06 48.6704C188.395 48.2244 187.81 47.5345 187.451 46.6773C187.093 45.8244 186.958 44.8048 187.19 43.6946C187.281 43.2613 187.427 42.8145 187.638 42.3588C184.616 42.8915 181.23 43.3187 180.537 39.8433ZM191.433 41.9853C190.709 41.8235 189.565 42.0146 188.304 42.24C188.015 42.7779 187.827 43.3024 187.722 43.8051C187.515 44.7988 187.634 45.7091 187.952 46.4689C188.269 47.2245 188.781 47.8303 189.362 48.2197C189.681 48.4334 190.019 48.5811 190.355 48.6513C191.416 48.8726 192.254 48.2661 192.769 47.344C192.993 46.9427 193.158 46.4827 193.255 46.0029C193.353 45.5217 193.384 45.022 193.34 44.5431C193.228 43.3308 192.633 42.2532 191.433 41.9853ZM205.044 42.6665C206.654 43.9143 208.301 45.0832 210.072 45.5256C212.831 46.2147 214.878 45.5944 216.109 44.4405C216.622 43.9591 216.994 43.3852 217.215 42.7763C217.436 42.1692 217.507 41.5271 217.422 40.9069C217.251 39.6668 216.444 38.5107 214.934 37.8982C214.491 37.7185 214.015 37.6071 213.526 37.5643C213.031 37.5208 212.524 37.5476 212.026 37.6446C212.022 37.6453 212.018 37.646 212.014 37.6465C210.752 37.9103 208.451 39.8281 206.034 41.8432C205.705 42.1171 205.374 42.3928 205.044 42.6665ZM199.236 46.1113C200.11 45.7297 201.15 45.0357 202.26 44.1968C202.075 44.1102 201.886 44.0333 201.692 43.9663C200.988 43.7231 200.253 43.6269 199.57 43.6492C198.843 43.6731 198.179 43.8315 197.681 44.0898C197.12 44.3806 196.861 44.8156 196.847 45.2271C196.841 45.4017 196.879 45.5725 196.956 45.7261C197.033 45.8802 197.151 46.0178 197.305 46.1254C197.715 46.4119 198.38 46.4849 199.236 46.1113Z"/>
</mask>
<path d="M180.537 39.8433C180.508 39.6959 180.603 39.5526 180.751 39.5233C180.898 39.4939 180.721 39.1246 180.751 39.272C181.372 42.3868 185.077 42.2674 187.955 41.7516C188.039 41.608 188.129 41.4638 188.226 41.319C188.76 40.5239 189.481 39.7849 190.409 39.1808C191.236 38.6421 192.227 38.2109 193.394 37.9433C194.411 37.6763 195.514 37.7227 196.677 37.9904C197.822 38.2537 199.027 38.7311 200.266 39.3331C201.651 40.0062 202.976 41.0459 204.317 42.0985C204.413 42.174 204.509 42.2496 204.606 42.3251C204.967 42.0268 205.328 41.7255 205.687 41.4264C208.154 39.3704 210.501 37.4134 211.899 37.1169C211.907 37.1145 211.915 37.1125 211.924 37.1109C212.472 37.004 213.03 36.9744 213.573 37.022C214.115 37.0695 214.644 37.1936 215.139 37.3943C216.849 38.0878 217.764 39.4108 217.96 40.8346C218.057 41.5412 217.976 42.2718 217.726 42.9613C217.476 43.6488 217.058 44.2953 216.481 44.836C215.128 46.1046 212.905 46.7934 209.941 46.053C208.029 45.5755 206.3 44.332 204.614 43.021C204.154 43.3985 203.696 43.7689 203.245 44.1225C203.744 44.4442 204.201 44.8373 204.605 45.2968C205.328 46.1191 205.882 47.1539 206.202 48.3716C206.373 49.0219 206.429 49.5978 206.395 50.1028C206.342 50.8988 206.066 51.5207 205.662 51.9823C205.258 52.4448 204.729 52.7418 204.169 52.889C203.81 52.9835 203.439 53.0165 203.08 52.9924C202.756 52.9706 202.444 52.8981 202.167 52.7853C201.881 52.6691 201.629 52.5088 201.435 52.3153C201.059 51.9403 200.98 51.4622 201.09 51.023C201.146 50.8012 201.251 50.5895 201.392 50.4077C201.533 50.2254 201.71 50.0722 201.91 49.9679C202.28 49.7744 202.719 49.7481 203.138 50.0071C203.336 50.1297 203.516 50.3117 203.655 50.5552C203.775 50.7662 203.864 51.0238 203.906 51.3289C203.927 51.4774 203.823 51.6145 203.675 51.6351C203.526 51.6556 203.389 51.5518 203.368 51.4033C203.336 51.1697 203.27 50.977 203.182 50.8231C203.091 50.6625 202.977 50.545 202.853 50.4686C202.618 50.3233 202.371 50.3389 202.161 50.4485C202.033 50.5155 201.916 50.617 201.821 50.7394C201.726 50.8624 201.655 51.0053 201.618 51.1548C201.551 51.4215 201.596 51.7092 201.818 51.9304C201.96 52.0718 202.15 52.1916 202.371 52.2814C202.597 52.3733 202.852 52.4324 203.116 52.4502C203.418 52.4705 203.73 52.4429 204.031 52.3638C204.492 52.2425 204.926 52.0004 205.254 51.6251C205.583 51.2489 205.808 50.7343 205.853 50.0666C205.883 49.6173 205.832 49.0998 205.677 48.5098C205.379 47.3773 204.866 46.4171 204.197 45.6562C203.782 45.1844 203.307 44.7892 202.787 44.4771C201.572 45.407 200.423 46.1855 199.453 46.6089C198.398 47.0689 197.545 46.9543 196.995 46.5698C196.765 46.4095 196.589 46.2021 196.471 45.9685C196.353 45.7343 196.296 45.4746 196.305 45.2101C196.324 44.6155 196.676 43.9994 197.432 43.6071C197.998 43.3134 198.744 43.1335 199.553 43.107C200.297 43.0826 201.099 43.1879 201.869 43.4538C202.169 43.5576 202.46 43.683 202.74 43.829C203.211 43.4627 203.692 43.0753 204.176 42.679L203.981 42.5259C202.662 41.4906 201.359 40.4679 200.03 39.8221C198.824 39.2365 197.657 38.773 196.556 38.5198C195.474 38.271 194.457 38.2255 193.532 38.4685L193.523 38.4706C192.418 38.7227 191.483 39.1288 190.704 39.6359C189.842 40.1975 189.172 40.8835 188.677 41.621L188.675 41.624C189.807 41.4286 190.823 41.2934 191.55 41.4559C193.022 41.7845 193.748 43.0624 193.88 44.4942C193.929 45.026 193.895 45.5795 193.787 46.1113C193.679 46.6446 193.495 47.1578 193.243 47.6076C192.617 48.7284 191.58 49.4615 190.245 49.1829C189.84 49.0984 189.437 48.9231 189.06 48.6704C188.395 48.2244 187.81 47.5345 187.451 46.6773C187.093 45.8244 186.958 44.8048 187.19 43.6946C187.281 43.2613 187.427 42.8145 187.638 42.3588C184.616 42.8915 181.23 43.3187 180.537 39.8433ZM191.433 41.9853C190.709 41.8235 189.565 42.0146 188.304 42.24C188.015 42.7779 187.827 43.3024 187.722 43.8051C187.515 44.7988 187.634 45.7091 187.952 46.4689C188.269 47.2245 188.781 47.8303 189.362 48.2197C189.681 48.4334 190.019 48.5811 190.355 48.6513C191.416 48.8726 192.254 48.2661 192.769 47.344C192.993 46.9427 193.158 46.4827 193.255 46.0029C193.353 45.5217 193.384 45.022 193.34 44.5431C193.228 43.3308 192.633 42.2532 191.433 41.9853ZM205.044 42.6665C206.654 43.9143 208.301 45.0832 210.072 45.5256C212.831 46.2147 214.878 45.5944 216.109 44.4405C216.622 43.9591 216.994 43.3852 217.215 42.7763C217.436 42.1692 217.507 41.5271 217.422 40.9069C217.251 39.6668 216.444 38.5107 214.934 37.8982C214.491 37.7185 214.015 37.6071 213.526 37.5643C213.031 37.5208 212.524 37.5476 212.026 37.6446C212.022 37.6453 212.018 37.646 212.014 37.6465C210.752 37.9103 208.451 39.8281 206.034 41.8432C205.705 42.1171 205.374 42.3928 205.044 42.6665ZM199.236 46.1113C200.11 45.7297 201.15 45.0357 202.26 44.1968C202.075 44.1102 201.886 44.0333 201.692 43.9663C200.988 43.7231 200.253 43.6269 199.57 43.6492C198.843 43.6731 198.179 43.8315 197.681 44.0898C197.12 44.3806 196.861 44.8156 196.847 45.2271C196.841 45.4017 196.879 45.5725 196.956 45.7261C197.033 45.8802 197.151 46.0178 197.305 46.1254C197.715 46.4119 198.38 46.4849 199.236 46.1113Z" fill="#B4975A"/>
<path d="M180.537 39.8433C180.508 39.6959 180.603 39.5526 180.751 39.5233C180.898 39.4939 180.721 39.1246 180.751 39.272C181.372 42.3868 185.077 42.2674 187.955 41.7516C188.039 41.608 188.129 41.4638 188.226 41.319C188.76 40.5239 189.481 39.7849 190.409 39.1808C191.236 38.6421 192.227 38.2109 193.394 37.9433C194.411 37.6763 195.514 37.7227 196.677 37.9904C197.822 38.2537 199.027 38.7311 200.266 39.3331C201.651 40.0062 202.976 41.0459 204.317 42.0985C204.413 42.174 204.509 42.2496 204.606 42.3251C204.967 42.0268 205.328 41.7255 205.687 41.4264C208.154 39.3704 210.501 37.4134 211.899 37.1169C211.907 37.1145 211.915 37.1125 211.924 37.1109C212.472 37.004 213.03 36.9744 213.573 37.022C214.115 37.0695 214.644 37.1936 215.139 37.3943C216.849 38.0878 217.764 39.4108 217.96 40.8346C218.057 41.5412 217.976 42.2718 217.726 42.9613C217.476 43.6488 217.058 44.2953 216.481 44.836C215.128 46.1046 212.905 46.7934 209.941 46.053C208.029 45.5755 206.3 44.332 204.614 43.021C204.154 43.3985 203.696 43.7689 203.245 44.1225C203.744 44.4442 204.201 44.8373 204.605 45.2968C205.328 46.1191 205.882 47.1539 206.202 48.3716C206.373 49.0219 206.429 49.5978 206.395 50.1028C206.342 50.8988 206.066 51.5207 205.662 51.9823C205.258 52.4448 204.729 52.7418 204.169 52.889C203.81 52.9835 203.439 53.0165 203.08 52.9924C202.756 52.9706 202.444 52.8981 202.167 52.7853C201.881 52.6691 201.629 52.5088 201.435 52.3153C201.059 51.9403 200.98 51.4622 201.09 51.023C201.146 50.8012 201.251 50.5895 201.392 50.4077C201.533 50.2254 201.71 50.0722 201.91 49.9679C202.28 49.7744 202.719 49.7481 203.138 50.0071C203.336 50.1297 203.516 50.3117 203.655 50.5552C203.775 50.7662 203.864 51.0238 203.906 51.3289C203.927 51.4774 203.823 51.6145 203.675 51.6351C203.526 51.6556 203.389 51.5518 203.368 51.4033C203.336 51.1697 203.27 50.977 203.182 50.8231C203.091 50.6625 202.977 50.545 202.853 50.4686C202.618 50.3233 202.371 50.3389 202.161 50.4485C202.033 50.5155 201.916 50.617 201.821 50.7394C201.726 50.8624 201.655 51.0053 201.618 51.1548C201.551 51.4215 201.596 51.7092 201.818 51.9304C201.96 52.0718 202.15 52.1916 202.371 52.2814C202.597 52.3733 202.852 52.4324 203.116 52.4502C203.418 52.4705 203.73 52.4429 204.031 52.3638C204.492 52.2425 204.926 52.0004 205.254 51.6251C205.583 51.2489 205.808 50.7343 205.853 50.0666C205.883 49.6173 205.832 49.0998 205.677 48.5098C205.379 47.3773 204.866 46.4171 204.197 45.6562C203.782 45.1844 203.307 44.7892 202.787 44.4771C201.572 45.407 200.423 46.1855 199.453 46.6089C198.398 47.0689 197.545 46.9543 196.995 46.5698C196.765 46.4095 196.589 46.2021 196.471 45.9685C196.353 45.7343 196.296 45.4746 196.305 45.2101C196.324 44.6155 196.676 43.9994 197.432 43.6071C197.998 43.3134 198.744 43.1335 199.553 43.107C200.297 43.0826 201.099 43.1879 201.869 43.4538C202.169 43.5576 202.46 43.683 202.74 43.829C203.211 43.4627 203.692 43.0753 204.176 42.679L203.981 42.5259C202.662 41.4906 201.359 40.4679 200.03 39.8221C198.824 39.2365 197.657 38.773 196.556 38.5198C195.474 38.271 194.457 38.2255 193.532 38.4685L193.523 38.4706C192.418 38.7227 191.483 39.1288 190.704 39.6359C189.842 40.1975 189.172 40.8835 188.677 41.621L188.675 41.624C189.807 41.4286 190.823 41.2934 191.55 41.4559C193.022 41.7845 193.748 43.0624 193.88 44.4942C193.929 45.026 193.895 45.5795 193.787 46.1113C193.679 46.6446 193.495 47.1578 193.243 47.6076C192.617 48.7284 191.58 49.4615 190.245 49.1829C189.84 49.0984 189.437 48.9231 189.06 48.6704C188.395 48.2244 187.81 47.5345 187.451 46.6773C187.093 45.8244 186.958 44.8048 187.19 43.6946C187.281 43.2613 187.427 42.8145 187.638 42.3588C184.616 42.8915 181.23 43.3187 180.537 39.8433ZM191.433 41.9853C190.709 41.8235 189.565 42.0146 188.304 42.24C188.015 42.7779 187.827 43.3024 187.722 43.8051C187.515 44.7988 187.634 45.7091 187.952 46.4689C188.269 47.2245 188.781 47.8303 189.362 48.2197C189.681 48.4334 190.019 48.5811 190.355 48.6513C191.416 48.8726 192.254 48.2661 192.769 47.344C192.993 46.9427 193.158 46.4827 193.255 46.0029C193.353 45.5217 193.384 45.022 193.34 44.5431C193.228 43.3308 192.633 42.2532 191.433 41.9853ZM205.044 42.6665C206.654 43.9143 208.301 45.0832 210.072 45.5256C212.831 46.2147 214.878 45.5944 216.109 44.4405C216.622 43.9591 216.994 43.3852 217.215 42.7763C217.436 42.1692 217.507 41.5271 217.422 40.9069C217.251 39.6668 216.444 38.5107 214.934 37.8982C214.491 37.7185 214.015 37.6071 213.526 37.5643C213.031 37.5208 212.524 37.5476 212.026 37.6446C212.022 37.6453 212.018 37.646 212.014 37.6465C210.752 37.9103 208.451 39.8281 206.034 41.8432C205.705 42.1171 205.374 42.3928 205.044 42.6665ZM199.236 46.1113C200.11 45.7297 201.15 45.0357 202.26 44.1968C202.075 44.1102 201.886 44.0333 201.692 43.9663C200.988 43.7231 200.253 43.6269 199.57 43.6492C198.843 43.6731 198.179 43.8315 197.681 44.0898C197.12 44.3806 196.861 44.8156 196.847 45.2271C196.841 45.4017 196.879 45.5725 196.956 45.7261C197.033 45.8802 197.151 46.0178 197.305 46.1254C197.715 46.4119 198.38 46.4849 199.236 46.1113Z" stroke="#B4975A" mask="url(#path-1-outside-1)"/>
<line y1="-0.75" x2="163" y2="-0.75" transform="matrix(-1 0 0 1 181 40)" stroke="#B4975A" stroke-width="1.5"/>
<path d="M19.293 40L10.0001 30.707L0.707108 40L10.0001 49.293L19.293 40Z" fill="#B4975A" stroke="#B4975A"/>
<path d="M9.44 15V3.8H17.632V15H15.552V5.784H11.52V15H9.44ZM26.3884 10.616H24.2444V15H22.1644V3.8H26.3884C27.5297 3.8 28.399 4.11467 28.9964 4.744C29.5937 5.36267 29.8924 6.184 29.8924 7.208C29.8924 8.232 29.5937 9.05867 28.9964 9.688C28.399 10.3067 27.5297 10.616 26.3884 10.616ZM26.3084 8.696C27.2897 8.696 27.7804 8.2 27.7804 7.208C27.7804 6.216 27.2897 5.72 26.3084 5.72H24.2444V8.696H26.3084ZM34.0294 3.8H40.9574V5.72H36.1094V8.072H39.9974V9.992H36.1094V13.08H41.1174V15H34.0294V3.8ZM45.0565 16.984L44.8325 13.016H45.8565L47.4245 3.8H53.8725V13.016H54.8485L54.6245 16.984H52.8325V15H46.8485V16.984H45.0565ZM51.7925 5.72H49.2485L47.9045 13.016H51.7925V5.72ZM58.8219 15V3.8H60.9019V8.152H62.9979C64.1605 8.152 65.0672 8.45067 65.7179 9.048C66.3685 9.63467 66.6939 10.4773 66.6939 11.576C66.6939 12.6747 66.3685 13.5227 65.7179 14.12C65.0672 14.7067 64.1605 15 62.9979 15H58.8219ZM62.8059 10.072H60.9019V13.08H62.8059C64.0112 13.08 64.6139 12.5787 64.6139 11.576C64.6139 10.5733 64.0112 10.072 62.8059 10.072ZM68.1979 3.672H70.1819V15H68.1979V3.672ZM74.349 16.984L74.125 13.016H75.149L76.717 3.8H83.165V13.016H84.141L83.917 16.984H82.125V15H76.141V16.984H74.349ZM81.085 5.72H78.541L77.197 13.016H81.085V5.72ZM86.7986 3.8H88.7986L91.0226 9.192L93.1986 3.8H95.1826L90.5426 15.128H88.6226L90.0466 11.608L86.7986 3.8ZM104.014 13.016V3.8H106.094V13.016H109.47V3.8H111.55V13.016H112.718L112.43 16.984H110.638V15H98.5575V3.8H100.638V13.016H104.014ZM116.844 3.8H118.924V11.192L123.036 3.8H125.228V15H123.148V7.608L119.036 15H116.844V3.8ZM131.836 3.8H129.756V15H131.948L136.06 7.608V15H138.14V3.8H135.948L131.836 11.192V3.8ZM132.06 0.664H133.516C133.516 0.791999 133.554 0.898666 133.628 0.983999C133.714 1.06933 133.82 1.112 133.948 1.112C134.076 1.112 134.178 1.06933 134.252 0.983999C134.338 0.898666 134.38 0.791999 134.38 0.664H135.836C135.836 1.144 135.66 1.55467 135.308 1.896C134.967 2.23733 134.514 2.408 133.948 2.408C133.383 2.408 132.924 2.23733 132.572 1.896C132.231 1.55467 132.06 1.144 132.06 0.664ZM149.471 15V3.8H151.551V8.056H156.031V3.8H158.111V15H156.031V9.976H151.551V15H149.471ZM165.117 4.28C165.895 3.87467 166.77 3.672 167.741 3.672C168.711 3.672 169.586 3.87467 170.365 4.28C171.143 4.67467 171.778 5.31467 172.269 6.2C172.77 7.08533 173.021 8.152 173.021 9.4C173.021 10.648 172.77 11.7147 172.269 12.6C171.778 13.4853 171.143 14.1307 170.365 14.536C169.586 14.9307 168.711 15.128 167.741 15.128C166.77 15.128 165.895 14.9307 165.117 14.536C164.338 14.1307 163.698 13.4853 163.197 12.6C162.706 11.7147 162.461 10.648 162.461 9.4C162.461 8.152 162.706 7.08533 163.197 6.2C163.698 5.31467 164.338 4.67467 165.117 4.28ZM169.997 6.552C169.399 5.912 168.647 5.592 167.741 5.592C166.834 5.592 166.077 5.912 165.469 6.552C164.871 7.192 164.573 8.14133 164.573 9.4C164.573 10.6587 164.871 11.608 165.469 12.248C166.077 12.888 166.834 13.208 167.741 13.208C168.647 13.208 169.399 12.888 169.997 12.248C170.605 11.608 170.909 10.6587 170.909 9.4C170.909 8.14133 170.605 7.192 169.997 6.552ZM177.122 15V3.8H179.458L182.098 10.792L184.738 3.8H187.074V15H184.994V8.088L182.85 13.976H181.346L179.202 8.088V15H177.122ZM191.597 3.8H198.525V5.72H193.677V8.072H197.565V9.992H193.677V13.08H198.685V15H191.597V3.8ZM207.061 10.616H204.917V15H202.837V3.8H207.061C208.202 3.8 209.072 4.11467 209.669 4.744C210.266 5.36267 210.565 6.184 210.565 7.208C210.565 8.232 210.266 9.05867 209.669 9.688C209.072 10.3067 208.202 10.616 207.061 10.616ZM206.981 8.696C207.962 8.696 208.453 8.2 208.453 7.208C208.453 6.216 207.962 5.72 206.981 5.72H204.917V8.696H206.981Z" fill="white"/>
</svg>
